<svg width="433" height="97" viewBox="0 0 433 97" fill="none" xmlns="http://www.w3.org/2000/svg">
    <path fill-rule="evenodd" clip-rule="evenodd"
        d="M173.8 47.2C176.416 46.1876 178.661 44.4001 180.234 42.0769C181.807 39.7536 182.632 37.0054 182.6 34.2C182.6 22.5 174.3 16.7 162.9 16.7H133V80.32H165.5C175.5 80.32 185.3 73.32 185.3 62.62C185.3 49.9 173.8 47.32 173.8 47.2ZM148.6 29.9H160.2C160.943 29.854 161.687 29.9549 162.391 30.1969C163.095 30.439 163.744 30.8174 164.301 31.3107C164.859 31.8039 165.313 32.4022 165.639 33.0713C165.965 33.7404 166.155 34.4671 166.2 35.21C166.2 35.4367 166.2 35.6667 166.2 35.9C166.168 37.4641 165.52 38.9523 164.396 40.0405C163.273 41.1287 161.764 41.7288 160.2 41.71H148.5L148.6 29.9ZM160.3 67H148.7V54.5H160C165.7 54.5 168.4 57 168.4 60.7C168.4 65.32 165 67 160.3 67Z"
        fill="#002B3D" />
    <path fill-rule="evenodd" clip-rule="evenodd"
        d="M219.7 15.1C201.3 15.1 190.5 29.8 190.5 48.4C190.5 67 201.3 81.7 219.7 81.7C238.1 81.7 248.9 67.1 248.9 48.4C248.9 29.7 238.2 15.1 219.7 15.1ZM219.7 66.5C210.7 66.5 206.2 58.4 206.2 48.4C206.2 38.4 210.7 30.4 219.7 30.4C228.7 30.4 233.3 38.5 233.3 48.4C233.3 58.5 228.7 66.5 219.7 66.5Z"
        fill="#002B3D" />
    <path fill-rule="evenodd" clip-rule="evenodd"
        d="M282.8 41.7L280.6 41.2C275.2 40.1 270.9 38.7 270.9 34.8C270.9 30.6 275 28.9 278.6 28.9C281.056 28.9366 283.478 29.4794 285.715 30.4946C287.952 31.5098 289.955 32.9754 291.6 34.8L301.5 25C297 19.9 289.7 15 278.3 15C264.9 15 254.7 22.5 254.7 35C254.7 46.4 262.9 52 272.9 54.1L275.1 54.6C283.4 56.3 286.5 57.6 286.5 61.6C286.5 65.4 283.1 67.9 277.9 67.9C271.7 67.9 266.1 65.2 261.8 59.7L251.7 69.7C257.3 76.4 264.4 81.6 278.1 81.6C290 81.6 302.7 74.8 302.7 60.9C302.9 46.4 291.9 43.6 282.8 41.7Z"
        fill="#002B3D" />
    <path fill-rule="evenodd" clip-rule="evenodd"
        d="M338.3 66.5C331.3 66.5 324 60.7 324 48C324 36.7 330.8 30.4 337.9 30.4C343.5 30.4 346.8 33 349.4 37.5L362.2 29C355.8 19.3 348.2 15.2 337.7 15.2C318.5 15.2 308.1 30.1 308.1 48.1C308.1 67 319.6 81.8 337.5 81.8C350.1 81.8 356.1 77.4 362.6 68L349.7 59.32C347.1 63.5 344.3 66.5 338.3 66.5Z"
        fill="#002B3D" />
    <path fill-rule="evenodd" clip-rule="evenodd"
        d="M404.9 16.7V40.1H385.6V16.7H368.9V80.3H385.6V55.2H404.9V80.3H421.6V16.7H404.9Z"
        fill="#002B3D" />
    <path
        d="M48.2 0C38.667 0 29.348 2.82688 21.4215 8.12316C13.4951 13.4194 7.31717 20.9473 3.66903 29.7547C0.0208843 38.5621 -0.933636 48.2535 0.926171 57.6034C2.78598 66.9532 7.37658 75.5417 14.1175 82.2825C20.8584 89.0234 29.4468 93.614 38.7967 95.4738C48.1466 97.3337 57.838 96.3791 66.6454 92.731C75.4528 89.0829 82.9806 82.9049 88.2769 74.9785C93.5731 67.052 96.4 57.7331 96.4 48.2C96.4 35.4166 91.3218 23.1567 82.2826 14.1175C73.2433 5.0782 60.9835 0 48.2 0ZM48.2 91.9C39.557 91.9 31.108 89.337 23.9216 84.5352C16.7352 79.7334 11.134 72.9084 7.82649 64.9233C4.51894 56.9381 3.65353 48.1515 5.3397 39.6746C7.02588 31.1976 11.1879 23.411 17.2995 17.2994C23.411 11.1879 31.1976 7.02586 39.6746 5.33968C48.1515 3.65351 56.9382 4.51891 64.9233 7.82646C72.9084 11.134 79.7334 16.7352 84.5352 23.9216C89.3371 31.108 91.9 39.557 91.9 48.2C91.8974 59.7891 87.2924 70.9029 79.0977 79.0976C70.9029 87.2924 59.7892 91.8974 48.2 91.9Z"
        fill="black" />
    <path
        d="M68.1 18.1H64.8V34.6H31.7V18.1H28.3C23.3201 21.3853 19.2331 25.8549 16.4054 31.1081C13.5776 36.3613 12.0974 42.234 12.0974 48.2C12.0974 54.166 13.5776 60.0387 16.4054 65.2919C19.2331 70.5452 23.3201 75.0147 28.3 78.3H31.7V61.82H64.8V78.32H68.1C73.0821 75.0363 77.1711 70.5673 80.0005 65.3139C82.8298 60.0604 84.3109 54.1869 84.3109 48.22C84.3109 42.2531 82.8298 36.3796 80.0005 31.1261C77.1711 25.8727 73.0821 21.4037 68.1 18.12V18.1ZM27.1 71.82C23.9987 69.0643 21.4705 65.7248 19.6598 61.992C17.8492 58.2592 16.7916 54.2063 16.5473 50.0647C16.3031 45.9232 16.8771 41.7741 18.2365 37.8544C19.5958 33.9346 21.714 30.3211 24.47 27.22C25.2961 26.2973 26.1742 25.4225 27.1 24.6V71.82ZM64.8 57.22H31.7V39.1H64.8V57.22ZM69.3 71.72V61.72V34.6V24.6C72.3938 27.3781 74.9099 30.7385 76.7044 34.4893C78.499 38.2401 79.5369 42.3077 79.7589 46.4598C79.9808 50.6119 79.3824 54.767 77.998 58.6877C76.6135 62.6085 74.47 66.218 71.69 69.31C70.9339 70.1462 70.1362 70.9438 69.3 71.7V71.72Z"
        fill="black" />
</svg>
    